<?xml version="1.0" standalone="no"?>
<!DOCTYPE svg PUBLIC "-//W3C//DTD SVG 20010904//EN"
 "http://www.w3.org/TR/2001/REC-SVG-20010904/DTD/svg10.dtd">
<svg version="1.0" xmlns="http://www.w3.org/2000/svg"
 width="840.000000pt" height="859.000000pt" viewBox="0 0 840.000000 859.000000"
 preserveAspectRatio="xMidYMid meet">
<metadata>
Created by potrace 1.16, written by Peter Selinger 2001-2019
</metadata>
<g transform="translate(0.000000,859.000000) scale(0.100000,-0.100000)"
fill="#000000" stroke="none">
<path d="M3895 7438 c-163 -10 -264 -38 -427 -117 -137 -67 -298 -186 -384
-285 -54 -63 -234 -352 -234 -377 0 -15 -56 -146 -85 -200 -34 -62 -55 -136
-46 -160 6 -16 4 -49 -5 -94 -9 -49 -13 -149 -12 -335 1 -146 3 -247 5 -225 6
63 12 74 29 51 13 -19 14 -17 14 16 0 20 -3 45 -7 55 -6 16 -8 15 -15 -7 -13
-42 3 299 18 384 7 43 16 81 19 84 12 13 14 -8 6 -59 -14 -82 -21 -219 -10
-190 25 64 44 93 71 107 17 9 32 13 36 10 3 -3 -1 -32 -9 -63 -9 -39 -14 -113
-13 -223 0 -149 4 -183 37 -348 20 -101 44 -197 53 -214 10 -19 18 -66 21
-117 l4 -86 -45 70 c-25 39 -64 114 -87 168 -42 99 -56 120 -45 67 3 -17 1
-30 -4 -30 -23 0 -79 157 -81 226 -1 50 -86 -182 -105 -284 -10 -56 -14 -115
-11 -148 5 -46 3 -56 -14 -68 -37 -25 -76 -90 -129 -211 -57 -132 -84 -239
-101 -408 -11 -101 -15 -115 -40 -142 -58 -62 -74 -116 -76 -267 -2 -129 -4
-140 -28 -183 -76 -129 -189 -473 -199 -605 -3 -47 -11 -135 -18 -196 -10 -99
-9 -118 6 -165 10 -30 25 -62 33 -71 15 -17 12 -18 -58 -20 l-74 -1 83 -6 c92
-7 78 3 190 -124 45 -51 57 -46 28 11 -39 77 -76 173 -91 235 -18 78 -9 129
66 378 68 227 83 263 115 277 21 10 22 9 14 -19 -5 -16 -5 -29 0 -29 5 0 6
-16 3 -35 -3 -19 -3 -35 1 -35 3 0 24 36 46 80 38 75 68 121 232 360 91 133
102 155 228 451 148 347 162 375 218 432 61 63 95 80 162 81 51 0 137 -24 168
-47 26 -20 22 3 -11 54 -43 70 -72 132 -101 222 -45 140 -43 150 21 101 19
-14 37 -23 40 -20 3 3 -6 81 -21 172 -31 183 -30 207 10 330 57 173 250 598
299 659 18 23 19 31 -11 -164 -8 -52 -14 -113 -14 -136 0 -23 -3 -44 -6 -48
-5 -5 -8 -139 -5 -238 1 -33 4 -37 32 -41 36 -6 38 -4 80 128 17 54 38 112 46
128 14 28 17 28 70 23 31 -3 60 -10 65 -15 7 -7 2 -43 -12 -102 -11 -51 -19
-94 -17 -97 9 -8 79 115 168 294 89 182 182 405 214 518 10 33 20 64 23 70 8
12 29 -131 38 -250 7 -98 -7 -318 -32 -487 -18 -125 -15 -161 8 -108 33 74 82
309 103 495 5 45 9 55 16 42 27 -47 59 -373 59 -594 0 -51 4 -93 9 -93 5 0 15
10 24 23 l15 22 14 -35 15 -35 21 41 c18 35 34 87 56 187 5 22 12 27 35 27 56
0 67 -22 90 -180 12 -80 21 -148 21 -152 0 -5 14 -8 30 -8 27 0 34 -6 50 -42
11 -24 20 -50 20 -58 0 -8 -19 -62 -41 -120 -23 -58 -68 -183 -101 -279 -32
-96 -68 -193 -80 -215 -35 -70 -137 -159 -249 -216 -94 -48 -127 -74 -64 -50
23 9 26 8 22 -4 -15 -37 -174 -275 -211 -313 -36 -39 -40 -48 -41 -100 -1 -32
-3 -63 -3 -70 -1 -7 -28 -30 -59 -51 -32 -22 -67 -49 -77 -61 -11 -11 -25 -21
-32 -21 -6 0 -35 31 -63 69 -65 87 -66 116 -14 220 21 40 44 76 52 79 8 3 22
-4 32 -16 32 -40 53 -28 92 52 45 90 47 111 12 102 -14 -4 -41 0 -62 10 -21 9
-49 20 -63 25 l-25 10 27 -23 c30 -25 50 -69 40 -85 -7 -10 -46 -33 -56 -33
-3 0 -13 15 -21 33 l-14 32 5 -46 c6 -47 -15 -119 -35 -119 -6 0 -13 27 -17
60 -4 33 -11 63 -17 67 -6 4 -8 0 -4 -10 12 -32 9 -211 -3 -239 -16 -33 -42
-43 -71 -28 -16 9 -32 9 -64 0 -24 -7 -48 -9 -54 -5 -19 11 -12 61 12 83 24
23 63 29 69 12 2 -5 9 -6 17 -1 9 6 -11 16 -60 31 -41 12 -96 35 -123 52 -39
24 -67 32 -135 38 -47 5 -102 14 -121 19 -46 14 -50 13 -20 -4 14 -7 42 -17
62 -20 21 -4 40 -10 43 -14 2 -4 -9 -36 -25 -70 -41 -85 -146 -403 -175 -526
-27 -117 -57 -284 -85 -480 -33 -233 -49 -279 -140 -400 l-37 -50 236 6 c303
7 1549 9 1579 2 15 -3 21 -11 18 -19 -17 -40 -15 -46 4 -21 16 20 25 25 35 17
9 -8 14 -5 18 10 5 19 13 20 115 20 64 0 113 4 117 10 4 6 11 8 16 4 6 -3 51
-8 101 -10 50 -2 93 -6 96 -9 10 -10 123 186 117 204 -7 24 88 147 140 182 22
14 67 36 100 50 38 15 53 25 42 27 -10 2 -32 -2 -48 -8 -16 -7 -33 -9 -37 -5
-10 10 46 55 70 55 17 0 18 3 9 14 -14 17 -10 20 89 61 85 35 174 36 239 2 50
-25 114 -109 177 -232 83 -159 102 -249 64 -298 -22 -27 -25 -37 -12 -37 5 0
22 24 37 53 16 28 40 67 53 85 25 33 25 34 14 130 -31 258 -136 493 -287 648
-70 70 -71 73 -100 175 -18 66 -57 160 -108 262 l-79 160 -13 126 c-16 149
-102 475 -139 531 -35 52 -86 103 -132 134 l-41 27 5 74 c4 62 0 85 -22 147
-25 70 -41 162 -67 388 -11 99 -11 110 11 190 31 112 34 172 21 410 -11 208
-19 247 -63 294 -13 14 -41 65 -62 113 -68 153 -154 266 -296 385 -157 133
-307 221 -420 247 -171 39 -267 51 -398 51 -293 0 -525 -70 -749 -226 -90 -63
-116 -70 -49 -14 317 267 869 346 1283 184 86 -33 255 -132 333 -195 65 -53
83 -51 23 2 -94 82 -288 191 -403 227 -181 56 -356 74 -575 60z m357 -237
c228 -59 417 -146 574 -264 148 -111 279 -256 323 -360 32 -74 25 -79 -13 -9
-94 174 -291 359 -493 462 -93 48 -315 122 -433 145 -138 26 -331 31 -426 10
-127 -28 -252 -73 -359 -129 -138 -73 -211 -125 -334 -238 -58 -54 -110 -98
-115 -98 -15 0 96 114 188 193 105 90 254 185 365 233 223 96 488 117 723 55z
m-323 -956 c-39 -154 -72 -281 -74 -283 -2 -2 -30 3 -62 11 -82 21 -82 23 37
237 29 52 72 140 97 195 42 94 62 129 69 123 1 -2 -29 -129 -67 -283z m-971
-142 c-10 -2 -18 -11 -18 -18 0 -8 6 -12 14 -9 11 4 14 -28 14 -188 0 -106 -4
-200 -8 -209 -5 -9 -6 -19 -3 -23 10 -9 12 -56 3 -61 -3 -2 -5 -28 -3 -57 2
-29 1 -86 -3 -126 -5 -63 -8 -71 -18 -55 -36 53 -87 372 -64 400 9 11 9 16 -2
23 -10 6 -12 32 -8 109 4 87 8 105 27 125 12 13 19 30 16 39 -8 19 28 57 53
56 16 -1 16 -2 0 -6z m2213 -180 l32 -27 -7 -136 c-3 -74 -8 -151 -11 -170 -4
-32 -4 -31 8 7 17 60 30 66 22 11 -5 -33 -4 -48 4 -48 16 0 14 -68 -5 -131
-29 -100 -114 -216 -114 -157 0 25 -33 -25 -89 -135 -19 -37 -37 -67 -40 -67
-9 0 0 144 10 156 15 18 77 213 98 309 20 95 47 365 38 389 -6 14 1 26 14 26
4 0 22 -12 40 -27z m-75 -21 c5 -28 3 -38 -11 -48 -15 -11 -17 -19 -9 -46 18
-60 -1 -223 -41 -361 -16 -56 -42 -103 -31 -57 16 65 35 246 37 350 1 129 13
197 35 197 8 0 16 -15 20 -35z m-510 -1179 c-43 -299 -100 -604 -126 -671 -44
-113 -42 -111 -84 -57 -20 27 -36 52 -36 58 0 5 -25 43 -56 84 -55 73 -57 75
-92 68 -40 -7 -92 -42 -92 -62 0 -11 5 -11 20 -3 18 10 20 8 20 -25 0 -20 -7
-67 -16 -105 -14 -62 -20 -73 -54 -97 -44 -32 -70 -79 -70 -128 0 -22 -6 -37
-17 -43 -15 -9 -16 -17 -5 -75 32 -175 2 -216 -111 -150 -36 21 -39 33 -58
196 l-13 109 -58 45 c-58 44 -158 155 -158 174 0 18 51 29 107 22 l55 -6 53
-81 c29 -45 74 -101 100 -126 26 -25 53 -58 61 -75 l13 -30 1 32 c0 24 -10 44
-37 74 l-37 41 49 44 c150 133 135 114 128 172 -5 49 -4 54 31 96 46 57 113
156 182 272 47 79 64 98 117 133 34 22 89 67 122 101 33 33 61 60 63 60 2 0 1
-21 -2 -47z m-1143 -474 c8 -13 -3 -34 -49 -97 -59 -82 -74 -88 -74 -30 0 15
-5 39 -10 54 -8 19 -7 37 1 61 11 34 11 34 66 31 38 -2 59 -8 66 -19z"/>
<path d="M3350 5579 c-58 -40 -78 -59 -62 -59 7 0 12 -10 12 -22 0 -23 45 -88
61 -88 5 0 9 10 9 23 0 33 41 68 89 74 45 6 48 3 26 -30 -36 -56 -54 -232 -26
-260 15 -15 129 -13 196 5 41 11 53 19 67 48 10 19 18 58 18 85 0 55 11 82 29
70 17 -10 2 45 -18 68 -9 11 -59 40 -111 65 -83 41 -104 47 -170 50 -70 2 -78
0 -120 -29z"/>
<path d="M4515 5536 c-75 -24 -180 -89 -170 -106 3 -5 1 -20 -5 -34 -11 -31
-2 -33 42 -10 l31 16 -8 -29 c-4 -15 -11 -61 -14 -101 l-7 -73 50 -14 c27 -8
66 -15 86 -15 31 0 40 6 73 50 21 28 42 50 48 50 20 0 98 71 101 93 8 51 -54
150 -108 173 -40 17 -66 17 -119 0z"/>
<path d="M668 2295 c-31 -55 -81 -145 -110 -200 -141 -261 -203 -373 -223
-405 -12 -19 -41 -70 -64 -112 -86 -163 -126 -236 -182 -335 l-58 -103 317 0
317 0 17 48 c9 26 42 109 73 185 l56 138 -11 97 c-5 53 -19 210 -30 347 -26
325 -30 363 -39 405 l-7 35 -56 -100z"/>
<path d="M5455 2316 c-27 -18 -56 -40 -63 -49 -11 -13 -10 -15 7 -10 18 5 21
1 21 -25 0 -17 4 -33 9 -36 4 -3 11 -36 15 -73 20 -199 84 -485 151 -682 13
-40 22 -77 19 -82 -3 -5 22 -40 55 -76 34 -37 61 -71 61 -75 0 -11 -53 -36
-66 -31 -6 2 -17 -3 -24 -12 -11 -13 -6 -15 35 -15 34 0 52 5 60 17 13 17 14
17 32 0 18 -15 48 -17 296 -17 l277 0 0 60 c0 33 4 60 8 60 5 0 9 19 11 43 1
23 4 51 6 62 2 11 4 23 4 28 1 4 6 7 12 7 8 0 9 -12 4 -37 -4 -21 -11 -65 -15
-98 -5 -33 -12 -75 -15 -92 l-7 -33 111 0 c111 0 112 0 123 26 12 25 10 29
-30 64 -34 31 -42 44 -42 73 0 43 10 51 88 73 34 9 62 21 62 26 0 10 5 11 -60
-7 -30 -8 -56 -12 -59 -10 -7 8 70 36 101 37 27 1 48 26 48 57 0 8 -51 1 -113
-14 -22 -6 -27 -4 -27 12 0 28 8 32 40 20 27 -10 33 -8 65 23 19 19 35 39 35
44 0 11 -59 42 -95 49 -16 4 20 44 181 203 222 219 227 227 228 346 1 54 -3
71 -18 85 -18 16 -19 16 -7 1 11 -15 11 -24 -3 -52 -9 -19 -29 -45 -44 -56
-15 -12 -99 -90 -187 -173 -88 -83 -158 -148 -155 -145 3 4 74 77 159 162 85
86 153 158 150 160 -2 3 -93 -83 -201 -190 l-197 -195 -26 -142 c-14 -78 -30
-146 -35 -151 -15 -15 -12 26 4 76 12 36 22 95 39 230 1 9 -2 17 -8 16 -9 0
-21 -52 -66 -281 -12 -60 -29 -86 -29 -43 0 13 14 89 30 168 35 169 36 178 11
178 -10 0 -24 7 -31 15 -8 10 -17 12 -23 6 -13 -13 11 -54 26 -45 7 4 4 -2 -6
-13 -10 -12 -14 -24 -9 -27 11 -7 3 -56 -9 -56 -4 0 -6 -9 -4 -20 2 -11 -1
-20 -7 -20 -6 0 -8 -10 -6 -23 4 -22 -17 -55 -28 -44 -3 3 -1 43 4 89 6 45 9
84 7 86 -2 2 -9 -22 -16 -52 -7 -34 -17 -56 -26 -56 -7 0 -13 3 -13 8 0 4 -10
12 -22 17 -18 8 -24 19 -26 56 -2 31 -10 53 -23 64 -12 12 -19 14 -19 6 0 -7
-4 -10 -9 -7 -18 11 -35 -23 -23 -48 11 -25 0 -46 -25 -46 -8 0 -16 -6 -19
-13 -2 -7 -16 -14 -29 -15 -20 -1 -25 3 -25 20 0 45 -15 4 -20 -55 -5 -65 -30
-95 -30 -36 0 25 -3 30 -12 21 -17 -17 -68 22 -61 48 3 11 9 20 15 20 5 0 4 8
-2 19 -5 11 -10 28 -10 38 0 11 -13 24 -30 31 -20 9 -30 21 -30 35 -1 30 -23
57 -48 57 -26 0 -31 -8 -38 -62 -4 -24 -9 -61 -14 -83 l-7 -40 -7 40 c-14 78
-17 85 -31 85 -26 0 -26 20 -1 30 14 5 26 14 26 19 0 13 -49 43 -63 37 -9 -3
-9 -5 1 -5 6 -1 12 -5 12 -11 0 -5 -7 -7 -15 -4 -13 5 -15 -24 -15 -227 -1
-269 -4 -272 -66 -57 -111 383 -159 684 -117 730 22 25 16 22 -42 -16z m30
-241 c20 -127 124 -562 155 -650 32 -89 41 -120 31 -109 -15 16 -81 202 -112
317 -38 142 -85 367 -99 477 -12 102 -12 96 -1 85 4 -6 16 -59 26 -120z"/>
<path d="M6904 1522 c1 -14 -9 -17 -63 -18 -54 -1 -66 -5 -72 -20 -12 -30 -11
-33 24 -37 31 -4 31 -4 -5 -5 -21 -1 -38 -5 -38 -9 0 -5 84 -8 187 -8 187 0
189 0 282 -33 52 -18 135 -54 185 -80 50 -26 96 -46 103 -44 6 1 41 -25 78
-59 36 -34 68 -60 70 -57 3 3 -32 41 -77 84 -68 65 -104 90 -198 137 -124 62
-102 73 25 12 136 -65 206 -119 271 -209 11 -16 27 -27 35 -24 19 6 -88 117
-169 176 -102 73 -335 162 -422 162 -15 0 -52 5 -83 11 -51 10 -55 13 -40 25
21 16 5 18 -32 4 -17 -7 -33 -7 -44 0 -15 7 -18 6 -17 -8z"/>
</g>
</svg>
